<svg xmlns="http://www.w3.org/2000/svg" viewBox="0 0 860.06 250.98">
    <defs>
        <style>
            .cls-1 {
                fill: #2b2c2a;
            }

            .cls-2 {
                fill: #fdad00;
            }

            .cls-3 {
                fill: #b3b3b3;
            }
        </style>
    </defs>
    <g id="Layer_2" data-name="Layer 2"><g id="Logo"><path class="cls-1" d="M145.3,19.75V14c-1.73-1.06-27.6-14-27.6-14s-26.2,12.93-28,14v5.74h0v98.76a171.19,171.19,0,0,0,1.19,22.3q1.19,8.73,4.19,13.94a16.11,16.11,0,0,0,8.38,7.28q5.37,2.06,13.94,2.06A39.78,39.78,0,0,0,131.27,162a16.51,16.51,0,0,0,8.57-7.28q3.09-5.2,4.28-13.94a171.43,171.43,0,0,0,1.18-22.3V19.75Z"/><path class="cls-2" d="M190.18,36.67v74.6q0,29-3,48t-11.11,30a42.2,42.2,0,0,1-22.22,15.45Q139.76,209,117.53,209T81.2,204.64A42.2,42.2,0,0,1,59,189.19q-8.13-11.07-11.11-30t-3-47.95V36.51L0,58.91v51.44Q0,144,4.7,170.29t17.52,44.26q12.83,18,35.69,27.21T117.53,251q36.32,0,59.41-9.22t35.9-27.21q12.81-18,17.52-44.26t4.7-59.94v-51Z"/><path class="cls-2" d="M358.6,99.92q-10.2,0-16.73-2.25a22.68,22.68,0,0,1-10.32-6.82,26.23,26.23,0,0,1-5.28-11.28A72.76,72.76,0,0,1,324.79,64V13.3h15.78V64a62.84,62.84,0,0,0,.77,10.92,15.55,15.55,0,0,0,2.73,6.82,10.15,10.15,0,0,0,5.46,3.56,41,41,0,0,0,18.09,0,10.56,10.56,0,0,0,5.58-3.56A15.34,15.34,0,0,0,376,74.89,63.84,63.84,0,0,0,376.76,64V13.3h15.78V64a73.4,73.4,0,0,1-1.48,15.6,26.23,26.23,0,0,1-5.28,11.28,22.75,22.75,0,0,1-10.39,6.82Q368.81,99.92,358.6,99.92Z"/><path class="cls-2" d="M464.33,69.78A59.92,59.92,0,0,1,463,83.55a20.42,20.42,0,0,1-4.63,9.25,18.9,18.9,0,0,1-8.6,5.22,45.29,45.29,0,0,1-13.29,1.66,31.21,31.21,0,0,1-9-1.12,16.73,16.73,0,0,1-6.05-3.15v23.14H406V63.49a49.31,49.31,0,0,1,1.66-13.88,20.3,20.3,0,0,1,5.22-9A20.45,20.45,0,0,1,422,35.67a53.45,53.45,0,0,1,13.47-1.48,52.8,52.8,0,0,1,13.17,1.42,19.18,19.18,0,0,1,9,4.93,20.49,20.49,0,0,1,5.1,9.25,54.65,54.65,0,0,1,1.61,14.42ZM435,87.34a32.74,32.74,0,0,0,6.94-.59,6.93,6.93,0,0,0,4.15-2.49,11.39,11.39,0,0,0,2-5.28,60.84,60.84,0,0,0,.53-9V64a56.82,56.82,0,0,0-.59-9.14A11.51,11.51,0,0,0,446,49.55a7.16,7.16,0,0,0-4.15-2.43,32.69,32.69,0,0,0-6.82-.59,31.91,31.91,0,0,0-6.77.59,7.58,7.58,0,0,0-4.15,2.37A10.52,10.52,0,0,0,422,54.65a52.61,52.61,0,0,0-.6,8.84v8.43a37.57,37.57,0,0,0,.65,7.65,10.25,10.25,0,0,0,2.2,4.75,8,8,0,0,0,4.15,2.37A27.87,27.87,0,0,0,435,87.34Z"/><path class="cls-2" d="M503.36,97.79a52.15,52.15,0,0,1-13.82-1.55,18.72,18.72,0,0,1-8.84-5A20.07,20.07,0,0,1,476,82.12a55.88,55.88,0,0,1-1.42-13.64v-5a55.19,55.19,0,0,1,1.36-13.11,21.21,21.21,0,0,1,4.57-9.13,18.8,18.8,0,0,1,8.43-5.34,41.23,41.23,0,0,1,12.81-1.72A36.13,36.13,0,0,1,511,35.31a18,18,0,0,1,6.46,2.91V9.63h15.43v77q0,6.06-2.73,8.6t-10,2.56Zm14.12-12.34V60.29a33.42,33.42,0,0,0-.59-6.94,7.8,7.8,0,0,0-2.2-4.15,9,9,0,0,0-4.27-2.08,32.69,32.69,0,0,0-6.82-.59,29.6,29.6,0,0,0-6.88.65,7.45,7.45,0,0,0-4.1,2.49,10.34,10.34,0,0,0-1.95,5.1,59.56,59.56,0,0,0-.48,8.37v5.1a58.17,58.17,0,0,0,.54,8.84,10.82,10.82,0,0,0,2,5.22,7.37,7.37,0,0,0,4.16,2.49,29.78,29.78,0,0,0,6.94.66Z"/><path class="cls-2" d="M598.88,86.63c0,4.2-1,7.1-2.85,8.72s-5.18,2.44-9.85,2.44H566.84q-12.69,0-18-4.75t-5.28-13.65V76.78q0-9.84,5.81-14.29T567.56,58a43.4,43.4,0,0,1,10.26,1,20.79,20.79,0,0,1,6.11,2.31V59.22a18.81,18.81,0,0,0-.65-5.34,6.79,6.79,0,0,0-2.2-3.38,9.2,9.2,0,0,0-4.21-1.72,40.08,40.08,0,0,0-6.7-.47h-5q-2.73,0-5.52.06l-5.51.11c-1.82.05-3.48.06-5,.06l2.5-12.45Q555,36,560,35.91t10.92-.06q14.48,0,21.24,5.1t6.76,16Zm-15,0V77a13.48,13.48,0,0,0-.42-3.62A4.36,4.36,0,0,0,581.79,71a8.76,8.76,0,0,0-3.67-1.36,37.67,37.67,0,0,0-6.29-.42h-1.78q-6.76,0-9.14,1.66t-2.37,6.05v2.26q0,3.8,2.19,5.63c1.47,1.23,4.17,1.84,8.13,1.84Z"/><path class="cls-2" d="M645.87,97.79h-9.61A58.23,58.23,0,0,1,624,96.72a15.6,15.6,0,0,1-7.6-3.74,14.14,14.14,0,0,1-3.85-7.18,49.42,49.42,0,0,1-1.07-11.27V21.73l15.42-2.49V36.09h22.19l-2.49,12.69h-19.7V73.7a32.74,32.74,0,0,0,.42,5.81,6.92,6.92,0,0,0,1.54,3.5,5.7,5.7,0,0,0,3.2,1.67,28.4,28.4,0,0,0,5.28.41h11Z"/><path class="cls-2" d="M671.73,72.16a41.78,41.78,0,0,0,.48,7,7.18,7.18,0,0,0,6,6.4,31.78,31.78,0,0,0,6.88.6h9.49q5.34,0,13.17-.24l-2.37,11.87L699.5,98q-2.61.06-5,.06h-10a43,43,0,0,1-13.88-1.89,18.73,18.73,0,0,1-13-14.18,50.68,50.68,0,0,1-1.24-11.81V63.49a54.39,54.39,0,0,1,1.3-12.57,21.17,21.17,0,0,1,4.57-9.2A20,20,0,0,1,671,36.09a43.35,43.35,0,0,1,13.94-1.9,41.64,41.64,0,0,1,13,1.72,21.27,21.27,0,0,1,8.3,4.8,17.18,17.18,0,0,1,4.45,7.3,30.94,30.94,0,0,1,1.31,9.2v2a36.84,36.84,0,0,1-.48,6.59,8.92,8.92,0,0,1-1.6,4,5.33,5.33,0,0,1-2.91,1.9,17.09,17.09,0,0,1-4.39.48Zm12.82-26.35a26.3,26.3,0,0,0-6.53.66,7.26,7.26,0,0,0-3.91,2.37,9.48,9.48,0,0,0-1.9,4.63,46.94,46.94,0,0,0-.48,7.41h25.51V58.16a24.15,24.15,0,0,0-.59-5.82,8,8,0,0,0-2-3.8,8.45,8.45,0,0,0-3.91-2.07A24.51,24.51,0,0,0,684.55,45.81Z"/><path class="cls-1" d="M338.46,141l40.46,58.62V141h15.66v84.48H380.82l-40.23-58.14v58.14H324.81V141Z"/><path class="cls-1" d="M442,227.59q-11.15,0-18.33-2.37A25.4,25.4,0,0,1,412.32,218a26.69,26.69,0,0,1-5.82-12.11,80.58,80.58,0,0,1-1.6-17V177.4a80,80,0,0,1,1.55-16.61,26.84,26.84,0,0,1,5.69-12.11,26,26,0,0,1,11.33-7.41q7.18-2.55,18.57-2.55,11.16,0,18.39,2.37a25.16,25.16,0,0,1,11.45,7.18,26.65,26.65,0,0,1,5.82,12.1,80,80,0,0,1,1.6,17v11.51a80.75,80.75,0,0,1-1.54,16.61,26.87,26.87,0,0,1-5.7,12.1A25.87,25.87,0,0,1,460.67,225Q453.44,227.59,442,227.59Zm0-13.41a46.53,46.53,0,0,0,10.44-1,11.46,11.46,0,0,0,6.35-3.68,16.3,16.3,0,0,0,3.21-7.77,79.38,79.38,0,0,0,.89-13.23v-10.8a78.63,78.63,0,0,0-.89-13.11,16.73,16.73,0,0,0-3.21-7.83,11.37,11.37,0,0,0-6.35-3.74,57.84,57.84,0,0,0-20.88,0,11.52,11.52,0,0,0-6.35,3.68,15.81,15.81,0,0,0-3.14,7.77,84,84,0,0,0-.83,13.23v10.8a82.85,82.85,0,0,0,.83,13.11,16.12,16.12,0,0,0,3.14,7.83,11.31,11.31,0,0,0,6.35,3.74A46.53,46.53,0,0,0,442,214.18Z"/><path class="cls-1" d="M570.67,141h15.42l-19,84.48H549.78l-15.54-62.53-15.9,62.53H500.78L482,141h16.26l12.22,64.31L527.12,141h14.71l16.38,64.43Z"/><path class="cls-3" d="M637,191.4a34.48,34.48,0,0,0-6.88,3.56,17.88,17.88,0,0,0-4.39,4.21,14,14,0,0,0-2.31,5.34,33.44,33.44,0,0,0-.66,7.06v9.61h42.13l-1,4.27H618.36V211.57a36.56,36.56,0,0,1,.83-8.19A18.67,18.67,0,0,1,627,191.87,43.61,43.61,0,0,1,635,187.6L648.38,182a34.49,34.49,0,0,0,5.94-3,16.25,16.25,0,0,0,3.91-3.5,12.1,12.1,0,0,0,2.2-4.51,25.2,25.2,0,0,0,.65-6.11q0-8.55-4-12.34c-2.7-2.53-7.24-3.8-13.65-3.8H632.07q-2.67,0-5.4.06t-5.82.18l.95-4.27q5.7-.24,10.86-.24H643.4q22.3,0,22.31,19.82v1.42a24,24,0,0,1-1,7.3,15.82,15.82,0,0,1-3,5.51,20.74,20.74,0,0,1-5,4.22,43.68,43.68,0,0,1-6.88,3.38Z"/><path class="cls-3" d="M705.69,227.35a38.14,38.14,0,0,1-12.4-1.78,18.91,18.91,0,0,1-8.48-5.69,25,25,0,0,1-4.93-10.21,63.83,63.83,0,0,1-1.6-15.42V176a64,64,0,0,1,1.6-15.36,25.12,25.12,0,0,1,4.93-10.27,19,19,0,0,1,8.48-5.69,44.08,44.08,0,0,1,24.8,0,19.49,19.49,0,0,1,8.55,5.69,24.79,24.79,0,0,1,5,10.27,63.49,63.49,0,0,1,1.6,15.36v18.28a63.33,63.33,0,0,1-1.6,15.42,24.72,24.72,0,0,1-5,10.21,19.41,19.41,0,0,1-8.55,5.69A38.09,38.09,0,0,1,705.69,227.35Zm0-80.21a36.27,36.27,0,0,0-10.38,1.31,14.75,14.75,0,0,0-7.12,4.56,20.2,20.2,0,0,0-4,8.84A66.47,66.47,0,0,0,682.91,176v18.28a66.47,66.47,0,0,0,1.25,14.12,20.15,20.15,0,0,0,4,8.84,14.76,14.76,0,0,0,7.12,4.57,36.29,36.29,0,0,0,10.38,1.3,36.83,36.83,0,0,0,10.44-1.3,14.4,14.4,0,0,0,7.12-4.57,21.09,21.09,0,0,0,4-8.84,63.58,63.58,0,0,0,1.3-14.12V176a63.58,63.58,0,0,0-1.3-14.12,21.15,21.15,0,0,0-4-8.84,14.38,14.38,0,0,0-7.12-4.56A36.81,36.81,0,0,0,705.69,147.14Z"/><path class="cls-3" d="M763.83,191.4A34.48,34.48,0,0,0,757,195a17.88,17.88,0,0,0-4.39,4.21,14,14,0,0,0-2.31,5.34,33.44,33.44,0,0,0-.66,7.06v9.61h42.13l-1,4.27H745.2V211.57a36.56,36.56,0,0,1,.83-8.19,19.54,19.54,0,0,1,2.73-6.4,19.79,19.79,0,0,1,5.1-5.11,44.06,44.06,0,0,1,7.95-4.27L775.22,182a34.49,34.49,0,0,0,5.94-3,16.25,16.25,0,0,0,3.91-3.5,12.1,12.1,0,0,0,2.2-4.51,25.2,25.2,0,0,0,.65-6.11q0-8.55-4-12.34t-13.64-3.8H758.91q-2.67,0-5.4.06t-5.82.18l.95-4.27q5.7-.24,10.86-.24h10.74q22.31,0,22.31,19.82v1.42a24,24,0,0,1-1,7.3,15.82,15.82,0,0,1-3,5.51,20.74,20.74,0,0,1-5,4.22,43.68,43.68,0,0,1-6.88,3.38Z"/><path class="cls-3" d="M832.53,227.35a38.14,38.14,0,0,1-12.4-1.78,18.91,18.91,0,0,1-8.48-5.69,25,25,0,0,1-4.93-10.21,63.83,63.83,0,0,1-1.6-15.42V176a64,64,0,0,1,1.6-15.36,25.12,25.12,0,0,1,4.93-10.27,19,19,0,0,1,8.48-5.69,44.08,44.08,0,0,1,24.8,0,19.4,19.4,0,0,1,8.54,5.69,24.68,24.68,0,0,1,5,10.27,63.49,63.49,0,0,1,1.6,15.36v18.28a63.33,63.33,0,0,1-1.6,15.42,24.6,24.6,0,0,1-5,10.21,19.32,19.32,0,0,1-8.54,5.69A38.09,38.09,0,0,1,832.53,227.35Zm0-80.21a36.27,36.27,0,0,0-10.38,1.31A14.75,14.75,0,0,0,815,153a20.2,20.2,0,0,0-4,8.84A66.47,66.47,0,0,0,809.75,176v18.28A66.47,66.47,0,0,0,811,208.37a20.15,20.15,0,0,0,4,8.84,14.76,14.76,0,0,0,7.12,4.57,36.29,36.29,0,0,0,10.38,1.3,36.83,36.83,0,0,0,10.44-1.3,14.4,14.4,0,0,0,7.12-4.57,21.09,21.09,0,0,0,4-8.84,63.58,63.58,0,0,0,1.3-14.12V176a63.58,63.58,0,0,0-1.3-14.12,21.15,21.15,0,0,0-4-8.84,14.38,14.38,0,0,0-7.12-4.56A36.81,36.81,0,0,0,832.53,147.14Z"/></g></g>
</svg>